<svg width="32" height="32" viewBox="0 0 32 32" fill="none" xmlns="http://www.w3.org/2000/svg">
<path d="M15.9993 22.3346L22.3327 16.0013L15.9993 9.66797L13.7827 11.8846L16.316 14.418H9.66602V17.5846H16.316L13.7827 20.118L15.9993 22.3346ZM15.9993 31.8346C13.8091 31.8346 11.7507 31.4187 9.82435 30.587C7.89796 29.7552 6.22227 28.6273 4.79727 27.2034C3.37227 25.7784 2.2444 24.1027 1.41368 22.1763C0.58296 20.2499 0.167071 18.1916 0.166016 16.0013C0.166016 13.811 0.581905 11.7527 1.41368 9.8263C2.24546 7.89991 3.37332 6.22422 4.79727 4.79922C6.22227 3.37422 7.89796 2.24636 9.82435 1.41564C11.7507 0.584913 13.8091 0.169024 15.9993 0.167969C18.1896 0.167969 20.248 0.583858 22.1743 1.41564C24.1007 2.24741 25.7764 3.37527 27.2014 4.79922C28.6264 6.22422 29.7548 7.89991 30.5866 9.8263C31.4184 11.7527 31.8337 13.811 31.8327 16.0013C31.8327 18.1916 31.4168 20.2499 30.585 22.1763C29.7532 24.1027 28.6254 25.7784 27.2014 27.2034C25.7764 28.6284 24.1007 29.7568 22.1743 30.5886C20.248 31.4203 18.1896 31.8357 15.9993 31.8346Z" fill="black"/>
</svg>
