<svg width="32" height="32" viewBox="0 0 32 32" fill="none" xmlns="http://www.w3.org/2000/svg">
<path d="M16.0007 22.3346L9.66732 16.0013L16.0007 9.66797L18.2173 11.8846L15.684 14.418H22.334V17.5846H15.684L18.2173 20.118L16.0007 22.3346ZM16.0007 31.8346C18.1909 31.8346 20.2493 31.4187 22.1757 30.587C24.102 29.7552 25.7777 28.6273 27.2027 27.2034C28.6277 25.7784 29.7556 24.1027 30.5863 22.1763C31.417 20.2499 31.8329 18.1916 31.834 16.0013C31.834 13.811 31.4181 11.7527 30.5863 9.8263C29.7545 7.89991 28.6267 6.22422 27.2027 4.79922C25.7777 3.37422 24.102 2.24636 22.1757 1.41564C20.2493 0.584913 18.1909 0.169024 16.0007 0.167969C13.8104 0.167969 11.752 0.583858 9.82565 1.41564C7.89926 2.24741 6.22357 3.37527 4.79856 4.79922C3.37357 6.22422 2.24518 7.89991 1.4134 9.8263C0.581623 11.7527 0.166262 13.811 0.167316 16.0013C0.167316 18.1916 0.583206 20.2499 1.41498 22.1763C2.24676 24.1027 3.37462 25.7784 4.79856 27.2034C6.22357 28.6284 7.89926 29.7568 9.82565 30.5886C11.752 31.4203 13.8104 31.8357 16.0007 31.8346Z" fill="black"/>
</svg>
